<svg xmlns="http://www.w3.org/2000/svg" viewBox="0 0 156 26"><path fill="#fff" d="M22.3 9.2c0-5.1-4.1-9.1-9.1-9.1H1.7C.8.1 0 .9 0 1.8V25.1c0 .5.4.9.9.9h1.3c.5 0 .9-.4.9-.9v-6.6h10.1c.4 0 .7 0 1-.1l3.3 6.9c.2.4.6.6 1 .6H20c.5 0 .8-.5.6-1l-3.5-7.4c3-1.5 5.2-4.7 5.2-8.3zm-9.2 6.1H3V3.1h10.1c3.4 0 6.1 2.8 6.1 6.2s-2.7 6-6.1 6zM34.9.1h-1.3c-.5 0-.9.4-.9.9v24c0 .5.4.9.9.9h1.3c.5 0 .9-.4.9-.9V.9c0-.4-.4-.8-.9-.8zm30.7 0H46.1c-.5 0-.9.4-.9.9v1.3c0 .5.4.9.9.9h8.2V25c0 .5.4.9.9.9h1.3c.5 0 .9-.4.9-.9V3.2h8.2c.5 0 .9-.4.9-.9V1c0-.5-.4-.9-.9-.9zM94.8 0H94c-.6 0-1.1.5-1.1 1.1v14.5c0 4.1-3.3 7.3-7.4 7.2-4-.1-7-3.5-7-7.5V1c0-.5-.4-1-1-1h-1c-.6 0-1.1.5-1.1 1.1v14.5c0 5.6 4.5 10.1 10 10.2 5.7.1 10.5-4.9 10.5-10.6V1.1C95.8.5 95.4 0 94.8 0zm60.3 22.8h-14.2V1c0-.5-.4-.9-.9-.9h-1.3c-.5 0-.9.4-.9.9v24c0 .5.4.8.8.8h16.5c.5 0 .9-.4.9-.9v-1.3c-.1-.4-.4-.8-.9-.8zM117.6.9c-.3-.5-.8-.9-1.4-.9-.6 0-1.1.3-1.4.9l-11.3 24c-.2.4.1 1 .6 1h1.6c.4 0 .8-.2 1-.6l9.5-20.1 9.5 20.1c.2.4.6.6 1 .6h1.6c.5 0 .8-.5.6-1L117.6.9z"/></svg>
